<svg xmlns="http://www.w3.org/2000/svg" width="2500" height="2500" viewBox="0 0 24 24"><path fill="#ffffff" d="M12 2.25a9.75 9.75 0 0 0-3.08 19c.49.09.67-.21.67-.47v-1.7c-2.72.6-3.3-1.15-3.3-1.15-.44-1.12-1.08-1.42-1.08-1.42-.88-.6.06-.59.06-.59 1 .07 1.52 1.02 1.52 1.02.88 1.52 2.31 1.08 2.88.83.09-.64.35-1.08.64-1.33-2.17-.25-4.46-1.08-4.46-4.83 0-1.07.38-1.94 1-2.63-.1-.25-.43-1.27.1-2.65 0 0 .82-.26 2.7 1a9.36 9.36 0 0 1 4.92 0c1.88-1.26 2.7-1 2.7-1 .53 1.38.2 2.4.1 2.65.62.69 1 1.56 1 2.63 0 3.76-2.3 4.57-4.49 4.82.36.31.68.92.68 1.86v2.76c0 .26.18.56.68.47A9.75 9.75 0 0 0 12 2.25Z"/></svg>
